<svg xmlns="http://www.w3.org/2000/svg" width="38.7" height="38.7" viewBox="0 0 38.7 38.7">
  <path id="Path_24" data-name="Path 24" d="M14.924,20.923l4,4,8-8M12.595,6.32a6.839,6.839,0,0,0,3.891-1.612,6.839,6.839,0,0,1,8.874,0A6.839,6.839,0,0,0,29.252,6.32a6.839,6.839,0,0,1,6.275,6.275,6.839,6.839,0,0,0,1.612,3.891,6.839,6.839,0,0,1,0,8.874,6.839,6.839,0,0,0-1.612,3.891,6.839,6.839,0,0,1-6.275,6.275,6.839,6.839,0,0,0-3.891,1.612,6.839,6.839,0,0,1-8.874,0,6.839,6.839,0,0,0-3.891-1.612A6.839,6.839,0,0,1,6.32,29.252a6.839,6.839,0,0,0-1.612-3.891,6.839,6.839,0,0,1,0-8.874A6.839,6.839,0,0,0,6.32,12.595,6.839,6.839,0,0,1,12.595,6.32Z" transform="translate(-1.573 -1.573)" fill="none" stroke="#3498db" stroke-linecap="round" stroke-linejoin="round" stroke-width="3"/>
</svg>
