<svg xmlns="http://www.w3.org/2000/svg" width="38.57" height="39" viewBox="0 0 38.57 39">
  <path id="Path_26" data-name="Path 26" d="M25,17h9.526A4,4,0,0,1,38.1,22.788l-7,14A4,4,0,0,1,27.521,39H19.488a3.975,3.975,0,0,1-.97-.12L11,37M25,17V7a4,4,0,0,0-4-4h-.19A1.809,1.809,0,0,0,19,4.81a7.219,7.219,0,0,1-1.216,4.012L11,19V37M25,17H21M11,37H7a4,4,0,0,1-4-4V21a4,4,0,0,1,4-4h5" transform="translate(-1.5 -1.5)" fill="none" stroke="#3498db" stroke-linecap="round" stroke-linejoin="round" stroke-width="3"/>
</svg>
