<?xml version="1.0" encoding="UTF-8"?> <svg xmlns="http://www.w3.org/2000/svg" width="20.186" height="20.186" viewBox="0 0 20.186 20.186"><path id="Path_155" data-name="Path 155" d="M9,12l2,2,4-4M7.835,4.7a3.42,3.42,0,0,0,1.946-.806,3.42,3.42,0,0,1,4.438,0,3.42,3.42,0,0,0,1.946.806A3.42,3.42,0,0,1,19.3,7.835a3.42,3.42,0,0,0,.806,1.946,3.42,3.42,0,0,1,0,4.438,3.42,3.42,0,0,0-.806,1.946A3.42,3.42,0,0,1,16.165,19.3a3.42,3.42,0,0,0-1.946.806,3.42,3.42,0,0,1-4.438,0A3.42,3.42,0,0,0,7.835,19.3,3.42,3.42,0,0,1,4.7,16.165a3.42,3.42,0,0,0-.806-1.946,3.42,3.42,0,0,1,0-4.438A3.42,3.42,0,0,0,4.7,7.835,3.42,3.42,0,0,1,7.835,4.7Z" transform="translate(-1.907 -1.907)" fill="none" stroke="#3498db" stroke-linecap="round" stroke-linejoin="round" stroke-width="2"></path></svg> 