<?xml version="1.0" encoding="UTF-8"?> <!-- Generator: Adobe Illustrator 26.3.1, SVG Export Plug-In . SVG Version: 6.00 Build 0) --> <svg xmlns="http://www.w3.org/2000/svg" xmlns:xlink="http://www.w3.org/1999/xlink" version="1.1" id="Lag_1" x="0px" y="0px" viewBox="0 0 799 147" style="enable-background:new 0 0 799 147;" xml:space="preserve"> <style type="text/css"> .st0{fill:#3F3F3F;} .st1{fill:#2BAB67;} .st2{fill:#BED75A;} .st3{fill:#6B6B6B;} </style> <path class="st0" d="M703.8,82.3h-12.7v11.2h12.7V82.3z M649,39.8h9.2c3.4,0,6,0.9,7.7,2.6c1.8,1.7,2.6,4,2.6,6.9 c0,3-0.9,5.2-2.6,6.7c-1.7,1.5-4.4,2.3-8,2.3h-9L649,39.8L649,39.8z M659.1,68.1c3.2,0,5.6,0.9,7.3,2.6c1.7,1.8,2.6,4.2,2.6,7.4v4.5 c0,2,0.2,4.1,0.5,6.2c0.3,2.2,1.1,3.7,2.2,4.6h13.1v-0.9c-1.2-0.9-2-2.4-2.5-4.3s-0.7-3.8-0.7-5.6v-4.7c0-3.8-0.8-7-2.5-9.6 c-1.6-2.6-4.3-4.4-8.1-5.5c3.3-1.5,5.8-3.4,7.6-5.7c1.7-2.4,2.6-5.2,2.6-8.4c0-5.9-2-10.5-6.1-13.8c-4.1-3.3-9.7-4.9-17-4.9h-22 v63.5H649V68.1H659.1z M625.4,55.7h-23.5v-16h27.9v-9.8h-40.6v63.5h40.7v-9.8h-28V65.5h23.5V55.7z M580.9,60.3h-25v8.8h12.2v12.3 c-1,0.9-2.3,1.7-4.1,2.3s-4.1,0.9-7.2,0.9c-4.1,0-7.4-1.5-9.8-4.5s-3.7-6.9-3.7-11.7V55.1c0-4.7,1.2-8.6,3.6-11.6 c2.4-3,5.5-4.5,9.4-4.5c3.7,0,6.6,0.9,8.5,2.8c1.9,1.9,2.9,4.5,2.9,7.9h12l0.1-0.3c0.1-6.1-1.8-11-6-14.7 c-4.1-3.7-10.1-5.5-17.8-5.5c-7.4,0-13.5,2.4-18.3,7.3c-4.7,4.8-7.1,11.1-7.1,18.8v13.2c0,7.7,2.4,14,7.3,18.8 c4.9,4.8,11.2,7.2,18.8,7.2c6.2,0,11.2-1,15.2-2.9c3.9-1.9,6.9-4.1,8.8-6.7V60.3H580.9z M498.9,30h-12.7v63.5h41.1v-9.8h-28.4V30z M454.7,47.4h0.3l7,22.4h-14.3L454.7,47.4z M469.3,93.4h13.3l-21.3-63.5h-13l-21.4,63.5h13.3l4.3-13.7H465L469.3,93.4z M421.7,61.4 H396v9.8h25.7V61.4z M361.1,30h-12.7v63.5h41.1v-9.8h-28.4V30L361.1,30z M327.1,30v41.5c0,4.2-1.1,7.5-3.4,9.7 c-2.3,2.2-5.4,3.4-9.3,3.4s-6.9-1.1-9.2-3.4c-2.3-2.2-3.4-5.5-3.4-9.7V30H289v41.5c0,7.1,2.3,12.7,7,16.8c4.7,4,10.8,6.1,18.3,6.1 c7.6,0,13.7-2,18.4-6.1c4.7-4,7.1-9.6,7.1-16.8V30H327.1L327.1,30z M280.4,30h-12.7v42.7h-0.3l-25.6-42.8h-12.7v63.5h12.7V50.6h0.3 l25.6,42.8h12.7V30z"></path> <path class="st0" d="M792.4,93.4h6l0.1-0.2l-21-25.3l19.3-21.4l-0.1-0.2h-6.1L772.5,66h-5V25.5h-5.2v68h5.2v-23h5.5L792.4,93.4z M718.3,70.3c0-6,1.2-10.9,3.5-14.7s5.8-5.6,10.4-5.6c3.5,0,6.3,0.8,8.5,2.5c2.2,1.7,3.9,3.9,5.1,6.5v22.4c-1.2,2.6-3,4.7-5.2,6.2 c-2.2,1.5-5,2.2-8.4,2.2c-4.6,0-8-1.7-10.3-5.1c-2.3-3.4-3.4-7.9-3.4-13.6v-0.8H718.3z M713.1,71.2c0,7.1,1.6,12.7,4.8,16.9 c3.2,4.2,7.6,6.3,13.2,6.3c3.3,0,6.2-0.7,8.7-2c2.5-1.3,4.5-3.3,6.1-5.8l0.7,6.8h4.3v-68h-5.2v27.8c-1.6-2.5-3.6-4.4-6-5.8 c-2.4-1.4-5.3-2-8.5-2c-5.7,0-10.1,2.3-13.3,6.8c-3.2,4.5-4.8,10.5-4.8,18.1V71.2L713.1,71.2z"></path> <path class="st1" d="M127.4,8.2c33.1,0,60.8,23.2,67.7,54.2l-29.6-27.2l-85.7,75.4l10.3,11.5L166,53.6l30.7,27.9 c-2,36.5-32.3,65.5-69.3,65.5v-45l-21.7,20.1v21.4C78,134.4,58,108.3,58,77.6C58,39.3,89.1,8.2,127.4,8.2z M127.8,43h-21.7v31.2 l21.7-17.3V43z"></path> <path class="st2" d="M20.3,32.5c0,0,19.5,9.6,20.7,18.8c1.2,9.1-9,14.3-9,14.3s-12.1,4.3-18.4-4.3C7.2,52.7,7.2,39.3,0,32.5 c0,0,10.3-12.2,28.1-11.4c0,0,17.9,0,23.9,13.1c0,0,2.8,10.5-10,9.6C42,43.9,35.8,33.4,20.3,32.5z"></path> <path class="st1" d="M55.7,5.4c0,0,7.8,7.7,7,12.2c-0.8,4.6-6.5,5.5-6.5,5.5s-6.5,0.2-8.2-4.9s0.4-11.6-2.1-15.9 c0,0,6.9-4.3,15.3-1.1c0,0,8.6,2.8,9.5,10c0,0-0.3,5.5-6.3,3.1C64.3,14.2,63,8.2,55.7,5.4z"></path> <path class="st3" d="M228.4,135v-22.4h3.1l8.1,15.6l8-15.6h3.2V135H248v-17.6l-7.5,14.4h-2l-7.5-14.4V135H228.4z"></path> <path class="st3" d="M262.4,135.4c-1.5,0-2.9-0.3-4-1c-1.2-0.7-2.1-1.7-2.8-2.9c-0.7-1.2-1-2.7-1-4.4c0-1.7,0.3-3.1,1-4.4 c0.7-1.3,1.6-2.2,2.8-2.9c1.2-0.7,2.6-1.1,4.1-1.1c1.5,0,2.9,0.4,4,1.1c1.1,0.7,2,1.6,2.6,2.7c0.6,1.1,0.9,2.3,0.9,3.6 c0,0.2,0,0.5,0,0.7c0,0.2,0,0.5,0,0.8h-12.6c0.1,1.2,0.3,2.2,0.8,3c0.5,0.8,1.1,1.4,1.9,1.8c0.8,0.4,1.6,0.6,2.4,0.6 c1.1,0,2-0.3,2.8-0.8c0.7-0.5,1.3-1.2,1.6-2.1h2.7c-0.4,1.5-1.2,2.7-2.5,3.7C265.9,134.9,264.3,135.4,262.4,135.4z M262.4,121 c-1.3,0-2.4,0.4-3.4,1.2c-1,0.8-1.5,1.9-1.7,3.4h10c-0.1-1.4-0.6-2.5-1.5-3.4C264.9,121.4,263.8,121,262.4,121z"></path> <path class="st3" d="M280.7,135.4c-1.6,0-3-0.4-4.2-1.1c-1.2-0.7-2.1-1.7-2.8-3c-0.6-1.3-1-2.7-1-4.3c0-1.6,0.3-3,1-4.3 c0.7-1.3,1.6-2.2,2.8-2.9c1.2-0.7,2.6-1.1,4.2-1.1c1.3,0,2.5,0.3,3.5,0.8c1,0.5,1.8,1.3,2.3,2.2V112h2.7v23h-2.4l-0.3-2.6 c-0.5,0.8-1.2,1.5-2.2,2.1C283.4,135.1,282.2,135.4,280.7,135.4z M281,133c1.1,0,2-0.2,2.8-0.7c0.8-0.5,1.5-1.2,1.9-2.1 c0.5-0.9,0.7-1.9,0.7-3.1s-0.2-2.2-0.7-3.1c-0.4-0.9-1.1-1.6-1.9-2.1c-0.8-0.5-1.7-0.8-2.8-0.8c-1,0-2,0.3-2.8,0.8 c-0.8,0.5-1.4,1.2-1.9,2.1c-0.4,0.9-0.7,1.9-0.7,3.1s0.2,2.2,0.7,3.1c0.5,0.9,1.1,1.6,1.9,2.1C279,132.8,280,133,281,133z"></path> <path class="st3" d="M302.1,135v-23h2.7v13.9l6.5-6.7h3.3l-7,7.2l7.9,8.7H312l-7.3-8.2v8.2H302.1z"></path> <path class="st3" d="M322.8,135l-6-15.9h2.8l4.8,13.3l4.8-13.3h2.8l-6,15.9H322.8z"></path> <path class="st3" d="M339.4,135.4c-1.3,0-2.4-0.2-3.3-0.7s-1.5-1-2-1.8c-0.4-0.7-0.6-1.6-0.6-2.4c0-1.6,0.6-2.9,1.9-3.7 s2.9-1.3,5.1-1.3h4.3v-0.2c0-1.4-0.4-2.4-1.1-3.1c-0.7-0.7-1.7-1.1-2.9-1.1c-1,0-2,0.3-2.7,0.8c-0.7,0.5-1.2,1.3-1.4,2.3h-2.8 c0.1-1.2,0.5-2.1,1.2-2.9c0.7-0.8,1.5-1.4,2.5-1.8c1-0.4,2.1-0.6,3.2-0.6c2.2,0,3.9,0.6,5,1.8c1.1,1.2,1.7,2.7,1.7,4.7v9.8H345 l-0.2-2.8c-0.4,0.9-1.1,1.7-2,2.3C342,135.1,340.8,135.4,339.4,135.4z M339.8,133.1c1,0,1.9-0.3,2.6-0.8c0.7-0.5,1.3-1.2,1.7-2.1 c0.4-0.9,0.6-1.7,0.6-2.7v0h-4.1c-1.6,0-2.7,0.3-3.4,0.8c-0.6,0.5-1,1.2-1,2c0,0.8,0.3,1.5,0.9,2 C337.8,132.9,338.7,133.1,339.8,133.1z"></path> <path class="st3" d="M351.4,135v-23h2.7v23H351.4z"></path> <path class="st3" d="M360.1,115.6c-0.5,0-1-0.2-1.3-0.5c-0.3-0.4-0.5-0.8-0.5-1.3c0-0.5,0.2-0.9,0.5-1.3c0.4-0.3,0.8-0.5,1.3-0.5 c0.5,0,1,0.2,1.3,0.5c0.4,0.3,0.5,0.8,0.5,1.3c0,0.5-0.2,1-0.5,1.3C361.1,115.4,360.6,115.6,360.1,115.6z M358.8,135v-15.9h2.7V135 H358.8z"></path> <path class="st3" d="M372.4,135c-1.4,0-2.6-0.4-3.4-1.1s-1.2-2-1.2-3.8v-8.7H365v-2.3h2.8l0.4-3.8h2.3v3.8h4.7v2.3h-4.7v8.7 c0,1,0.2,1.7,0.6,2c0.4,0.3,1.1,0.5,2.1,0.5h1.7v2.3H372.4z"></path> <path class="st3" d="M385.2,135.4c-1.5,0-2.9-0.3-4-1c-1.2-0.7-2.1-1.7-2.8-2.9c-0.7-1.2-1-2.7-1-4.4c0-1.7,0.3-3.1,1-4.4 c0.7-1.3,1.6-2.2,2.8-2.9c1.2-0.7,2.6-1.1,4.1-1.1c1.5,0,2.9,0.4,4,1.1c1.1,0.7,2,1.6,2.6,2.7c0.6,1.1,0.9,2.3,0.9,3.6 c0,0.2,0,0.5,0,0.7c0,0.2,0,0.5,0,0.8h-12.6c0.1,1.2,0.3,2.2,0.8,3c0.5,0.8,1.1,1.4,1.9,1.8c0.8,0.4,1.6,0.6,2.4,0.6 c1.1,0,2-0.3,2.8-0.8c0.7-0.5,1.3-1.2,1.6-2.1h2.7c-0.4,1.5-1.2,2.7-2.5,3.7C388.6,134.9,387.1,135.4,385.2,135.4z M385.2,121 c-1.3,0-2.4,0.4-3.4,1.2c-1,0.8-1.5,1.9-1.7,3.4h10c-0.1-1.4-0.6-2.5-1.5-3.4C387.7,121.4,386.6,121,385.2,121z"></path> <path class="st3" d="M402,135c-1.4,0-2.6-0.4-3.4-1.1s-1.2-2-1.2-3.8v-8.7h-2.8v-2.3h2.8l0.4-3.8h2.3v3.8h4.7v2.3h-4.7v8.7 c0,1,0.2,1.7,0.6,2c0.4,0.3,1.1,0.5,2.1,0.5h1.7v2.3H402z"></path> <path class="st3" d="M423.8,135.4c-1.5,0-2.8-0.3-4-1c-1.2-0.7-2.1-1.6-2.8-2.9c-0.7-1.3-1-2.7-1-4.4c0-1.7,0.4-3.1,1.1-4.4 c0.7-1.3,1.7-2.2,2.8-2.9c1.2-0.7,2.6-1,4.1-1c1.5,0,2.8,0.3,4,1c1.2,0.7,2.1,1.7,2.8,2.9c0.7,1.2,1.1,2.7,1.1,4.4 c0,1.7-0.4,3.2-1.1,4.4c-0.7,1.2-1.7,2.2-2.9,2.9C426.7,135,425.3,135.4,423.8,135.4z M423.8,133.1c0.9,0,1.8-0.2,2.6-0.7 c0.8-0.4,1.4-1.1,1.9-2c0.5-0.9,0.7-2,0.7-3.3c0-1.3-0.2-2.4-0.7-3.3c-0.5-0.9-1.1-1.6-1.9-2c-0.8-0.4-1.6-0.7-2.5-0.7 c-0.9,0-1.8,0.2-2.6,0.7c-0.8,0.4-1.4,1.1-1.9,2c-0.5,0.9-0.7,2-0.7,3.3c0,1.3,0.2,2.4,0.7,3.3c0.5,0.9,1.1,1.6,1.9,2 C422.1,132.9,423,133.1,423.8,133.1z"></path> <path class="st3" d="M441.1,130c-0.9,0-1.7-0.1-2.5-0.4l-1.6,1.5c0.2,0.2,0.5,0.3,0.9,0.4c0.4,0.1,0.9,0.2,1.5,0.3 c0.7,0.1,1.6,0.2,2.8,0.3c2.1,0.1,3.7,0.6,4.6,1.5c0.9,0.8,1.4,1.9,1.4,3.3c0,0.9-0.3,1.8-0.8,2.6c-0.5,0.8-1.3,1.5-2.3,2 c-1,0.5-2.3,0.8-4,0.8c-1.4,0-2.7-0.2-3.8-0.6c-1.1-0.4-2-0.9-2.6-1.7c-0.6-0.7-0.9-1.7-0.9-2.8c0-0.6,0.2-1.2,0.5-2 c0.3-0.7,0.9-1.3,1.8-2c-0.5-0.2-0.9-0.4-1.2-0.6c-0.3-0.2-0.6-0.5-0.9-0.8v-0.7l2.7-2.7c-1.3-1.1-1.9-2.5-1.9-4.2 c0-1,0.2-2,0.7-2.8c0.5-0.9,1.2-1.5,2.1-2c0.9-0.5,2.1-0.8,3.4-0.8c0.9,0,1.8,0.1,2.5,0.4h5.9v2l-3,0.1c0.6,0.9,0.9,1.9,0.9,3.1 c0,1-0.3,2-0.8,2.8c-0.5,0.9-1.2,1.5-2.1,2C443.6,129.8,442.5,130,441.1,130z M441.1,127.8c1.1,0,2-0.3,2.7-0.9c0.7-0.6,1-1.5,1-2.6 c0-1.1-0.3-1.9-1-2.5c-0.7-0.6-1.6-0.9-2.7-0.9c-1.2,0-2.1,0.3-2.8,0.9c-0.7,0.6-1,1.4-1,2.5c0,1.1,0.3,2,1,2.6 C439.1,127.5,440,127.8,441.1,127.8z M436.5,137c0,1.1,0.4,1.9,1.3,2.4c0.9,0.5,2,0.8,3.4,0.8c1.3,0,2.4-0.3,3.2-0.9 c0.8-0.6,1.2-1.3,1.2-2.3c0-0.7-0.3-1.3-0.8-1.8c-0.6-0.5-1.6-0.8-3.1-0.9c-1.2-0.1-2.2-0.2-3-0.3c-0.9,0.5-1.5,1-1.7,1.5 C436.6,136.1,436.5,136.6,436.5,137z"></path> <path class="st3" d="M467.1,135.4c-1.9,0-3.5-0.5-4.7-1.4c-1.3-1-2-2.3-2.2-3.9h2.8c0.2,0.8,0.6,1.6,1.3,2.2 c0.7,0.6,1.7,0.9,2.9,0.9c1.1,0,2-0.2,2.5-0.7c0.5-0.5,0.8-1.1,0.8-1.7c0-1-0.4-1.6-1.1-1.9c-0.7-0.3-1.7-0.6-2.9-0.9 c-0.9-0.2-1.7-0.4-2.6-0.7c-0.9-0.3-1.6-0.8-2.1-1.3c-0.6-0.6-0.9-1.4-0.9-2.3c0-1.4,0.5-2.5,1.5-3.4c1-0.9,2.5-1.3,4.2-1.3 c1.7,0,3.1,0.4,4.1,1.3c1.1,0.8,1.7,2,1.9,3.6H470c-0.1-0.8-0.5-1.4-1.1-1.9c-0.6-0.5-1.4-0.7-2.3-0.7c-1,0-1.7,0.2-2.2,0.6 c-0.5,0.4-0.8,0.9-0.8,1.6c0,0.6,0.3,1.1,1,1.5c0.7,0.4,1.6,0.7,2.8,0.9c1,0.2,1.9,0.5,2.8,0.8c0.9,0.3,1.6,0.8,2.2,1.4 c0.6,0.6,0.9,1.5,0.9,2.6c0,1.4-0.5,2.6-1.6,3.6C470.4,134.9,468.9,135.4,467.1,135.4z"></path> <path class="st3" d="M484.1,135.4c-1.5,0-2.9-0.3-4-1c-1.2-0.7-2.1-1.7-2.8-2.9c-0.7-1.2-1-2.7-1-4.4c0-1.7,0.3-3.1,1-4.4 c0.7-1.3,1.6-2.2,2.8-2.9c1.2-0.7,2.6-1.1,4.1-1.1c1.5,0,2.9,0.4,4,1.1c1.1,0.7,2,1.6,2.6,2.7c0.6,1.1,0.9,2.3,0.9,3.6 c0,0.2,0,0.5,0,0.7c0,0.2,0,0.5,0,0.8H479c0.1,1.2,0.3,2.2,0.8,3c0.5,0.8,1.1,1.4,1.9,1.8c0.8,0.4,1.6,0.6,2.4,0.6 c1.1,0,2-0.3,2.8-0.8c0.7-0.5,1.3-1.2,1.6-2.1h2.7c-0.4,1.5-1.2,2.7-2.5,3.7C487.5,134.9,486,135.4,484.1,135.4z M484.1,121 c-1.3,0-2.4,0.4-3.4,1.2c-1,0.8-1.5,1.9-1.7,3.4h10c-0.1-1.4-0.6-2.5-1.5-3.4C486.6,121.4,485.5,121,484.1,121z"></path> <path class="st3" d="M495.2,135v-15.9h2.4l0.2,3c0.5-1,1.2-1.9,2.2-2.5c1-0.6,2.2-0.9,3.7-0.9v2.8h-0.7c-0.9,0-1.8,0.2-2.6,0.5 c-0.8,0.3-1.4,0.9-1.9,1.7s-0.7,1.9-0.7,3.3v8H495.2z"></path> <path class="st3" d="M511.4,135l-6-15.9h2.8l4.8,13.3l4.8-13.3h2.8l-6,15.9H511.4z"></path> <path class="st3" d="M525.2,115.6c-0.5,0-1-0.2-1.3-0.5c-0.3-0.4-0.5-0.8-0.5-1.3c0-0.5,0.2-0.9,0.5-1.3c0.4-0.3,0.8-0.5,1.3-0.5 c0.5,0,1,0.2,1.3,0.5c0.4,0.3,0.5,0.8,0.5,1.3c0,0.5-0.2,1-0.5,1.3C526.1,115.4,525.7,115.6,525.2,115.6z M523.8,135v-15.9h2.7V135 H523.8z"></path> <path class="st3" d="M538.5,135.4c-1.5,0-2.9-0.3-4.1-1c-1.2-0.7-2.1-1.7-2.8-2.9c-0.7-1.3-1-2.7-1-4.4c0-1.7,0.3-3.1,1-4.4 c0.7-1.3,1.7-2.2,2.8-2.9c1.2-0.7,2.6-1.1,4.1-1.1c1.9,0,3.5,0.5,4.7,1.5c1.3,1,2.1,2.3,2.5,3.9h-2.8c-0.2-1-0.7-1.7-1.6-2.3 c-0.8-0.6-1.8-0.8-2.9-0.8c-0.9,0-1.7,0.2-2.5,0.7c-0.8,0.4-1.4,1.1-1.9,2c-0.5,0.9-0.7,2-0.7,3.3c0,1.3,0.2,2.4,0.7,3.3 c0.5,0.9,1.1,1.6,1.9,2c0.8,0.4,1.6,0.7,2.5,0.7c1.1,0,2.1-0.3,2.9-0.8c0.8-0.6,1.4-1.3,1.6-2.3h2.8c-0.3,1.6-1.1,2.9-2.4,3.9 C541.9,134.9,540.3,135.4,538.5,135.4z"></path> <path class="st3" d="M556.6,135.4c-1.5,0-2.9-0.3-4-1c-1.2-0.7-2.1-1.7-2.8-2.9c-0.7-1.2-1-2.7-1-4.4c0-1.7,0.3-3.1,1-4.4 c0.7-1.3,1.6-2.2,2.8-2.9c1.2-0.7,2.6-1.1,4.1-1.1c1.5,0,2.9,0.4,4,1.1c1.1,0.7,2,1.6,2.6,2.7c0.6,1.1,0.9,2.3,0.9,3.6 c0,0.2,0,0.5,0,0.7c0,0.2,0,0.5,0,0.8h-12.6c0.1,1.2,0.3,2.2,0.8,3c0.5,0.8,1.1,1.4,1.9,1.8c0.8,0.4,1.6,0.6,2.4,0.6 c1.1,0,2-0.3,2.8-0.8c0.7-0.5,1.3-1.2,1.6-2.1h2.7c-0.4,1.5-1.2,2.7-2.5,3.7C560,134.9,558.4,135.4,556.6,135.4z M556.6,121 c-1.3,0-2.4,0.4-3.4,1.2c-1,0.8-1.5,1.9-1.7,3.4h10c-0.1-1.4-0.6-2.5-1.5-3.4C559,121.4,557.9,121,556.6,121z"></path> <path class="st3" d="M577.7,115.6c-0.5,0-1-0.2-1.3-0.5c-0.3-0.4-0.5-0.8-0.5-1.3c0-0.5,0.2-0.9,0.5-1.3c0.4-0.3,0.8-0.5,1.3-0.5 c0.5,0,1,0.2,1.3,0.5c0.4,0.3,0.5,0.8,0.5,1.3c0,0.5-0.2,1-0.5,1.3C578.7,115.4,578.3,115.6,577.7,115.6z M576.4,135v-15.9h2.7V135 H576.4z"></path> <path class="st3" d="M593.1,135v-13.6h-2.4v-2.3h2.4v-2.8c0-1.5,0.4-2.7,1.2-3.4s1.9-1.1,3.4-1.1h1.6v2.3H598 c-0.8,0-1.4,0.2-1.7,0.5c-0.3,0.3-0.5,0.9-0.5,1.7v2.7h3.9v2.3h-3.9V135H593.1z"></path> <path class="st3" d="M609.5,135.4c-1.5,0-2.8-0.3-4-1c-1.2-0.7-2.1-1.6-2.8-2.9c-0.7-1.3-1-2.7-1-4.4c0-1.7,0.4-3.1,1.1-4.4 c0.7-1.3,1.7-2.2,2.8-2.9c1.2-0.7,2.6-1,4.1-1c1.5,0,2.8,0.3,4,1c1.2,0.7,2.1,1.7,2.8,2.9c0.7,1.2,1.1,2.7,1.1,4.4 c0,1.7-0.4,3.2-1.1,4.4c-0.7,1.2-1.7,2.2-2.9,2.9C612.3,135,611,135.4,609.5,135.4z M609.5,133.1c0.9,0,1.8-0.2,2.6-0.7 c0.8-0.4,1.4-1.1,1.9-2c0.5-0.9,0.7-2,0.7-3.3c0-1.3-0.2-2.4-0.7-3.3c-0.5-0.9-1.1-1.6-1.9-2c-0.8-0.4-1.6-0.7-2.5-0.7 c-0.9,0-1.8,0.2-2.6,0.7c-0.8,0.4-1.4,1.1-1.9,2c-0.5,0.9-0.7,2-0.7,3.3c0,1.3,0.2,2.4,0.7,3.3c0.5,0.9,1.1,1.6,1.9,2 C607.8,132.9,608.6,133.1,609.5,133.1z"></path> <path class="st3" d="M621.2,135v-23h2.7v13.9l6.5-6.7h3.3l-7,7.2l7.9,8.7h-3.4l-7.3-8.2v8.2H621.2z"></path> <path class="st3" d="M643.1,135.4c-1.9,0-3.4-0.6-4.5-1.7c-1.1-1.2-1.7-2.9-1.7-5.3v-9.3h2.7v9c0,3.3,1.4,5,4.1,5 c1.4,0,2.5-0.5,3.4-1.5c0.9-1,1.4-2.4,1.4-4.3v-8.2h2.7V135h-2.4l-0.2-2.8c-0.5,1-1.2,1.8-2.2,2.4 C645.4,135.1,644.3,135.4,643.1,135.4z"></path> <path class="st3" d="M661.7,135.4c-1.9,0-3.5-0.5-4.7-1.4c-1.3-1-2-2.3-2.2-3.9h2.8c0.2,0.8,0.6,1.6,1.3,2.2 c0.7,0.6,1.7,0.9,2.9,0.9c1.1,0,2-0.2,2.5-0.7c0.5-0.5,0.8-1.1,0.8-1.7c0-1-0.4-1.6-1.1-1.9c-0.7-0.3-1.7-0.6-2.9-0.9 c-0.9-0.2-1.7-0.4-2.6-0.7c-0.9-0.3-1.6-0.8-2.1-1.3c-0.6-0.6-0.9-1.4-0.9-2.3c0-1.4,0.5-2.5,1.5-3.4c1-0.9,2.5-1.3,4.2-1.3 c1.7,0,3.1,0.4,4.1,1.3c1.1,0.8,1.7,2,1.9,3.6h-2.7c-0.1-0.8-0.5-1.4-1.1-1.9c-0.6-0.5-1.4-0.7-2.3-0.7c-1,0-1.7,0.2-2.2,0.6 c-0.5,0.4-0.8,0.9-0.8,1.6c0,0.6,0.3,1.1,1,1.5c0.7,0.4,1.6,0.7,2.8,0.9c1,0.2,1.9,0.5,2.8,0.8c0.9,0.3,1.6,0.8,2.2,1.4 c0.6,0.6,0.9,1.5,0.9,2.6c0,1.4-0.5,2.6-1.6,3.6C665.1,134.9,663.6,135.4,661.7,135.4z"></path> </svg> 