<?xml version="1.0" encoding="UTF-8"?> <svg xmlns="http://www.w3.org/2000/svg" width="79.016" height="83.506" viewBox="0 0 79.016 83.506"><g transform="translate(-13.763)"><g transform="translate(13.763)"><g transform="translate(0)"><path d="M113.821,143.14H103.645a1.8,1.8,0,0,0-1.8,1.8v8.979a1.8,1.8,0,0,0,1.8,1.8h10.176a1.8,1.8,0,0,0,1.8-1.8v-8.979A1.8,1.8,0,0,0,113.821,143.14Zm-1.8,8.979h-6.585v-5.387h6.585Z" transform="translate(-87.482 -119.794)" fill="#18a871"></path><path d="M215.588,155.71h10.176a1.8,1.8,0,0,0,1.8-1.8v-8.979a1.8,1.8,0,0,0-1.8-1.8H215.588a1.8,1.8,0,0,0-1.8,1.8v8.979A1.8,1.8,0,0,0,215.588,155.71Zm1.8-8.979h6.585v5.387h-6.585Z" transform="translate(-181.168 -119.793)" fill="#18a871"></path><path d="M327.53,155.71h10.176a1.8,1.8,0,0,0,1.8-1.8v-8.979a1.8,1.8,0,0,0-1.8-1.8H327.53a1.8,1.8,0,0,0-1.8,1.8v8.979A1.8,1.8,0,0,0,327.53,155.71Zm1.8-8.979h6.585v5.387h-6.585Z" transform="translate(-274.852 -119.793)" fill="#18a871"></path><path d="M113.821,242.237H103.645a1.8,1.8,0,0,0-1.8,1.8v8.979a1.8,1.8,0,0,0,1.8,1.8h10.176a1.8,1.8,0,0,0,1.8-1.8v-8.979A1.8,1.8,0,0,0,113.821,242.237Zm-1.8,8.979h-6.585v-5.387h6.585Z" transform="translate(-87.482 -202.729)" fill="#18a871"></path><path d="M227.56,244.032a1.8,1.8,0,0,0-1.8-1.8H215.588a1.8,1.8,0,0,0-1.8,1.8v8.979a1.8,1.8,0,0,0,1.8,1.8h10.176a1.8,1.8,0,0,0,1.8-1.8Zm-3.592,7.183h-6.585v-5.387h6.585Z" transform="translate(-181.168 -202.728)" fill="#18a871"></path><path d="M327.53,254.807h10.176a1.8,1.8,0,0,0,1.8-1.8v-8.979a1.8,1.8,0,0,0-1.8-1.8H327.53a1.8,1.8,0,0,0-1.8,1.8v8.979A1.8,1.8,0,0,0,327.53,254.807Zm1.8-8.979h6.585v5.387h-6.585Z" transform="translate(-274.852 -202.728)" fill="#18a871"></path><path d="M113.821,341.333H103.645a1.8,1.8,0,0,0-1.8,1.8v8.979a1.8,1.8,0,0,0,1.8,1.8h10.176a1.8,1.8,0,0,0,1.8-1.8v-8.979A1.8,1.8,0,0,0,113.821,341.333Zm-1.8,8.979h-6.585v-5.387h6.585Z" transform="translate(-87.482 -285.663)" fill="#18a871"></path><path d="M327.53,353.9h10.176a1.8,1.8,0,0,0,1.8-1.8v-8.979a1.8,1.8,0,0,0-1.8-1.8H327.53a1.8,1.8,0,0,0-1.8,1.8v8.979A1.8,1.8,0,0,0,327.53,353.9Zm1.8-8.979h6.585v5.387h-6.585Z" transform="translate(-274.852 -285.663)" fill="#18a871"></path><path d="M90.983,72.731h-4.49V18.856h2.918a1.8,1.8,0,0,0,1.528-2.74L81.512.852A1.8,1.8,0,0,0,79.984,0H26.558A1.8,1.8,0,0,0,25.03.852L15.6,16.117a1.8,1.8,0,0,0,1.528,2.74h2.918V72.731h-4.49a1.8,1.8,0,0,0-1.8,1.8V81.71a1.8,1.8,0,0,0,1.8,1.8H90.983a1.8,1.8,0,0,0,1.8-1.8V74.527A1.8,1.8,0,0,0,90.983,72.731ZM27.56,3.592H78.983l2.36,3.82H73.066a1.8,1.8,0,0,0,0,3.592H83a1.793,1.793,0,0,0,.511-.075l2.678,4.336H20.35Zm30.8,52.079H48.183a1.8,1.8,0,0,0-1.8,1.8V72.731H23.64V18.856H82.9V72.731H60.155V57.466A1.8,1.8,0,0,0,58.359,55.67Zm-1.8,3.592V72.731H49.979V59.262ZM89.188,79.914H17.355V76.322H89.188Z" transform="translate(-13.763 0)" fill="#18a871"></path><path d="M300.979,49.036h2.993a1.8,1.8,0,0,0,0-3.592h-2.993a1.8,1.8,0,0,0,0,3.592Z" transform="translate(-252.632 -38.032)" fill="#18a871"></path></g></g></g></svg> 