<?xml version="1.0" encoding="UTF-8"?> <svg xmlns="http://www.w3.org/2000/svg" width="29.348" height="40.764" viewBox="0 0 29.348 40.764"><g transform="translate(-41.232 0)"><g transform="translate(41.232 0)"><path d="M59.671,4.494C58.73,3.11,57.9,1.836,57.124.674a1.685,1.685,0,0,0-.443-.443,1.443,1.443,0,0,0-1.993.443c-.72,1.163-1.55,2.381-2.547,3.821-4.374,6.423-10.908,16.114-10.908,21.651A14.608,14.608,0,0,0,45.551,36.5a14.794,14.794,0,0,0,10.355,4.264A14.747,14.747,0,0,0,70.58,26.09C70.58,20.553,64.046,10.918,59.671,4.494Zm4.6,29.957a11.711,11.711,0,0,1-8.361,3.433,11.945,11.945,0,0,1-8.361-3.433,11.711,11.711,0,0,1-3.433-8.361c0-4.651,6.257-13.9,10.41-20.045.5-.72.941-1.44,1.384-2.049.443.609.886,1.329,1.384,2.049,4.153,6.2,10.41,15.394,10.41,20.045A11.945,11.945,0,0,1,64.267,34.451Z" transform="translate(-41.232 0)" fill="#18a871"></path></g><g transform="translate(58.663 25.09)"><path d="M172.977,181.243a1.42,1.42,0,0,0-1.5,1.329,7.128,7.128,0,0,1-1.052,3.378,6.73,6.73,0,0,1-2.547,2.436,1.463,1.463,0,0,0,1.44,2.547,9.6,9.6,0,0,0,3.544-3.433,9.423,9.423,0,0,0,1.44-4.762A1.42,1.42,0,0,0,172.977,181.243Z" transform="translate(-167.152 -181.24)" fill="#18a871"></path></g></g></svg> 