<?xml version="1.0" encoding="UTF-8"?> <svg xmlns="http://www.w3.org/2000/svg" width="85.667" height="85.667" viewBox="0 0 85.667 85.667"><path d="M83.72,0H1.947A1.947,1.947,0,0,0,0,1.947V83.72a1.947,1.947,0,0,0,1.947,1.947H83.72a1.947,1.947,0,0,0,1.947-1.947V1.947A1.947,1.947,0,0,0,83.72,0ZM16.355,81.773H3.894V61.086H16.355V81.773Zm0-52.341V57.192H3.894V3.894H16.355V29.432ZM32.709,59.14V81.773H20.249V31.379H32.709Zm0-31.655H20.249V3.894H32.709ZM49.064,81.773H36.6V61.086H49.064Zm0-52.341V57.192H36.6V3.894H49.064ZM65.418,59.14V81.773H52.958V31.379H65.418Zm0-31.655H52.958V3.894H65.418ZM81.773,81.773H69.312V61.086H81.773Zm0-24.581H69.312V3.894H81.773Z" fill="#18a871"></path><circle cx="1.947" cy="1.947" r="1.947" transform="translate(24.532 35.013)" fill="#18a871"></circle><circle cx="1.947" cy="1.947" r="1.947" transform="translate(24.532 19.957)" fill="#18a871"></circle><circle cx="1.947" cy="1.947" r="1.947" transform="translate(57.241 35.013)" fill="#18a871"></circle><circle cx="1.947" cy="1.947" r="1.947" transform="translate(57.241 19.957)" fill="#18a871"></circle><circle cx="1.947" cy="1.947" r="1.947" transform="translate(40.887 64.721)" fill="#18a871"></circle><circle cx="1.947" cy="1.947" r="1.947" transform="translate(40.887 49.664)" fill="#18a871"></circle><circle cx="1.947" cy="1.947" r="1.947" transform="translate(8.177 64.721)" fill="#18a871"></circle><circle cx="1.947" cy="1.947" r="1.947" transform="translate(8.177 49.664)" fill="#18a871"></circle><circle cx="1.947" cy="1.947" r="1.947" transform="translate(74.472 64.721)" fill="#18a871"></circle><circle cx="1.947" cy="1.947" r="1.947" transform="translate(74.472 49.664)" fill="#18a871"></circle></svg> 