<?xml version="1.0" encoding="UTF-8"?> <svg xmlns="http://www.w3.org/2000/svg" width="99.856" height="63.383" viewBox="0 0 99.856 63.383"><g transform="translate(-1.067 -18.87)"><path d="M99.2,43.972l-5.852-.788c-4.023-1.395-8.723-6.823-9.127-12.5a10.976,10.976,0,0,1,3.063-8.359l11.108-.081A1.447,1.447,0,0,0,99.815,20.8,1.432,1.432,0,0,0,98.38,19.37h-.01l-38.884.273h-.02l-53.58.394a3.429,3.429,0,0,0-2.719.869C1.782,22.16,1.3,24.424,1.7,27.82c.728,6.307,9,7.156,9.289,7.176l10.866,1.455c-.03,6.752-.03,14.161.091,17.122.222,5.408.9,21.883,20.953,27.654,1.223.344,6.6.526,16.01.526q4.139,0,9.309-.04a1.43,1.43,0,0,0-.02-2.86h-.01c-16.607.142-23.55-.091-24.511-.374C25.616,73.283,25,58.365,24.8,53.463c-.121-3.073-.121-11.25-.081-18.315V35.1c.01-1.718.02-3.366.03-4.852a12.577,12.577,0,0,0,2.234,3.79,13.351,13.351,0,0,0,8.935,4.377c-.111,2.78-.334,9.026-.131,12.169l.02.425c.253,4.245.92,15.525,14.979,17.557,1.375.2,7.247.162,17.456-.111a1.436,1.436,0,0,0-.04-2.871h-.04c-9.481.253-15.828.3-16.97.131-11.755-1.7-12.281-10.6-12.533-14.888l-.03-.435c-.182-2.9.01-8.834.121-11.664l60.049,8.066a1.223,1.223,0,0,0,.192.01,1.427,1.427,0,0,0,1.415-1.243A1.383,1.383,0,0,0,99.2,43.972ZM81.369,30.882a18.483,18.483,0,0,0,5.62,11.442L65.156,39.393c-4.336-2.83-6.772-5.963-7.207-9.329a10.782,10.782,0,0,1,2.254-7.55l23.419-.162A13.656,13.656,0,0,0,81.369,30.882ZM43.223,36.442c-3.437-2-5.488-4.377-6.064-7.075a9.663,9.663,0,0,1,1.314-6.7l18.295-.131A12.831,12.831,0,0,0,55.1,30.387a14,14,0,0,0,4.508,8.248ZM14.508,32.58c-.03-.02-.051-.04-.071-.051a6.738,6.738,0,0,1-3.952-6.348,10.485,10.485,0,0,1,.657-3.315l6.7-.051a11.017,11.017,0,0,0,.778,10.31Zm7.429-9.269c0,.394-.04,4.366-.071,9.37-3.517-3.891-1.708-8.278-.849-9.875l1.031-.01A1.276,1.276,0,0,0,21.937,23.312ZM4.542,27.486c-.384-3.255.293-4.215.515-4.427a.6.6,0,0,1,.414-.192,1.673,1.673,0,0,0,.323.03l2.284-.02a10.4,10.4,0,0,0,1.152,8.844C7.352,31.186,4.835,29.993,4.542,27.486Zm24.622,4.7c-3.022-3.5-2.577-8.521-2.567-8.571a1.421,1.421,0,0,0-.192-.859l8.834-.061a11.835,11.835,0,0,0-.889,7.237,11.758,11.758,0,0,0,3.194,5.751c-.02,0-.051-.01-.071-.01C33.8,35.491,31,34.319,29.164,32.186Z" transform="translate(0)" fill="#18a871" stroke="#18a871" stroke-width="1"></path></g></svg> 