<?xml version="1.0" encoding="UTF-8"?> <svg xmlns="http://www.w3.org/2000/svg" width="93.801" height="76.291" viewBox="0 0 93.801 76.291"><g transform="translate(0 -47.787)"><g transform="translate(0 47.787)"><g transform="translate(0 0)"><path d="M90.225,359.917A2.085,2.085,0,0,0,88.141,362a4.521,4.521,0,0,1-4.516,4.516,2.085,2.085,0,1,0,0,4.169A8.7,8.7,0,0,0,92.31,362,2.085,2.085,0,0,0,90.225,359.917Z" transform="translate(-66.602 -302.733)" fill="#18a871"></path><path d="M253.307,359.917A2.085,2.085,0,0,0,251.223,362a4.521,4.521,0,0,1-4.516,4.516,2.085,2.085,0,1,0,0,4.169A8.7,8.7,0,0,0,255.392,362,2.085,2.085,0,0,0,253.307,359.917Z" transform="translate(-199.806 -302.733)" fill="#18a871"></path><path d="M416.388,359.917A2.085,2.085,0,0,0,414.3,362a4.521,4.521,0,0,1-4.516,4.516,2.085,2.085,0,0,0,0,4.169A8.7,8.7,0,0,0,418.473,362,2.085,2.085,0,0,0,416.388,359.917Z" transform="translate(-333.01 -302.733)" fill="#18a871"></path><path d="M90.225,240.071a2.085,2.085,0,0,0-2.085,2.085,4.522,4.522,0,0,1-4.516,4.516,2.085,2.085,0,0,0,0,4.169,8.7,8.7,0,0,0,8.685-8.685A2.085,2.085,0,0,0,90.225,240.071Z" transform="translate(-66.602 -204.844)" fill="#18a871"></path><path d="M253.307,240.071a2.085,2.085,0,0,0-2.085,2.085,4.521,4.521,0,0,1-4.516,4.516,2.085,2.085,0,1,0,0,4.169,8.7,8.7,0,0,0,8.685-8.685A2.085,2.085,0,0,0,253.307,240.071Z" transform="translate(-199.806 -204.844)" fill="#18a871"></path><path d="M416.388,240.071a2.085,2.085,0,0,0-2.085,2.085,4.521,4.521,0,0,1-4.516,4.516,2.085,2.085,0,0,0,0,4.169,8.7,8.7,0,0,0,8.685-8.685A2.085,2.085,0,0,0,416.388,240.071Z" transform="translate(-333.01 -204.844)" fill="#18a871"></path><path d="M83.625,136.683A8.7,8.7,0,0,0,92.311,128a2.085,2.085,0,0,0-4.169,0,4.522,4.522,0,0,1-4.516,4.516,2.085,2.085,0,0,0,0,4.169Z" transform="translate(-66.602 -111.6)" fill="#18a871"></path><path d="M253.307,125.913A2.085,2.085,0,0,0,251.223,128a4.521,4.521,0,0,1-4.516,4.516,2.085,2.085,0,1,0,0,4.169A8.7,8.7,0,0,0,255.392,128,2.085,2.085,0,0,0,253.307,125.913Z" transform="translate(-199.806 -111.6)" fill="#18a871"></path><path d="M91.716,47.787H2.085A2.085,2.085,0,0,0,0,49.871v57.184a17.02,17.02,0,0,0,31.962,8.154,17.016,17.016,0,0,0,29.877,0A17.02,17.02,0,0,0,93.8,107.055V49.871A2.085,2.085,0,0,0,91.716,47.787ZM4.169,51.956H29.877V64.185a12.854,12.854,0,0,1-25.708,0V51.956Zm25.708,55.1a12.854,12.854,0,0,1-25.708,0V96.24a16.987,16.987,0,0,0,25.708,0Zm0-21.956a12.854,12.854,0,0,1-25.708,0V75.326a16.987,16.987,0,0,0,25.708,0Zm29.877,21.956a12.854,12.854,0,0,1-25.708,0V96.24a16.987,16.987,0,0,0,25.708,0Zm0-21.956a12.854,12.854,0,0,1-25.708,0V75.326a16.987,16.987,0,0,0,25.708,0ZM46.9,77.039A12.869,12.869,0,0,1,34.046,64.185V51.956H59.755V64.185h0A12.869,12.869,0,0,1,46.9,77.039Zm42.731,30.016a12.854,12.854,0,0,1-25.708,0V96.24a16.987,16.987,0,0,0,25.708,0Zm0-21.956a12.854,12.854,0,0,1-25.708,0V75.326a16.987,16.987,0,0,0,25.708,0Zm0-20.914a12.854,12.854,0,0,1-25.708,0V51.956H89.632V64.185Z" transform="translate(0 -47.787)" fill="#18a871"></path><path d="M409.787,136.683A8.7,8.7,0,0,0,418.473,128a2.085,2.085,0,1,0-4.169,0,4.521,4.521,0,0,1-4.516,4.516,2.085,2.085,0,0,0,0,4.169Z" transform="translate(-333.01 -111.6)" fill="#18a871"></path></g></g></g></svg> 