<?xml version="1.0" encoding="UTF-8"?> <svg xmlns="http://www.w3.org/2000/svg" width="89.431" height="89.431" viewBox="0 0 89.431 89.431"><g transform="translate(0.8 512.8)"><path d="M1.338-511.64a2.46,2.46,0,0,0-.995,1.012C0-509.959,0-509.7,0-468.084c0,41.634,0,41.874.343,42.543a2.3,2.3,0,0,0,1.029,1.029c.669.343.909.343,42.543.343s41.874,0,42.543-.343a2.3,2.3,0,0,0,1.029-1.029c.343-.669.343-.909.343-42.543s0-41.874-.343-42.543a2.3,2.3,0,0,0-1.029-1.029C85.79-512,85.55-512,43.881-512,2.487-511.983,1.973-511.983,1.338-511.64ZM23.845-506.8c0,.017-1.681,1.715-3.74,3.774l-3.723,3.723-3.774-3.774-3.774-3.774h7.514C20.465-506.854,23.845-506.836,23.845-506.8Zm23.879,3.757-3.808,3.825-3.808-3.825-3.825-3.808H51.549Zm20.6,6.862L57.639-485.5l-5.061-5.061-5.061-5.061,5.61-5.61,5.627-5.627H79Zm-19.35,19.35-5.061,5.061L31.959-483.729,19.985-495.7l5.061-5.061,5.061-5.061,11.957,11.957,11.974,11.974Zm-27.533.086-5.061,5.061-5.61-5.61-5.627-5.627v-20.242l10.67,10.67L26.5-481.808Zm61.242-18.836v7.514l-3.774-3.774-3.774-3.774,3.723-3.723c2.059-2.059,3.757-3.74,3.774-3.74C82.668-503.08,82.685-499.7,82.685-495.583Zm-6.038,8.68,5.009,5.009L69.682-469.92,57.725-457.963l-5.061-5.061L47.6-468.084l11.922-11.922c6.553-6.553,11.957-11.922,12.008-11.922S73.884-489.665,76.646-486.9ZM28.271-456.128,16.3-444.154l-5.061-5.061-5.061-5.061,11.957-11.957,11.974-11.974,5.061,5.061,5.061,5.061ZM8.955-464.276l-3.808,3.825v-15.268l3.808,3.825,3.825,3.808Zm73.73-3.774v7.6l-3.808-3.808-3.825-3.825,3.774-3.774c2.076-2.076,3.791-3.774,3.808-3.774C82.668-475.632,82.685-472.219,82.685-468.05Zm0,24.926V-433l-10.67-10.67L61.327-454.361l5.061-5.061,5.061-5.061,5.61,5.609,5.627,5.627Zm-26.761-9.263,11.922,11.922-5.061,5.061-5.061,5.061L45.768-442.3,33.794-454.275l5.009-5.009c2.762-2.762,5.061-5.026,5.112-5.026S49.371-458.941,55.924-452.388Zm-20.637,6.81,5.026,5.026-5.61,5.61-5.627,5.627H8.835L19.47-439.951c5.85-5.85,10.67-10.636,10.722-10.636S32.542-448.322,35.287-445.578Zm-26.315,1.3,3.723,3.723L8.92-436.778,5.146-433v-7.514c0-4.117.017-7.5.051-7.5C5.215-448.014,6.913-446.333,8.972-444.274Zm38.8,11.185,3.774,3.774H36.282l3.774-3.774c2.076-2.076,3.808-3.774,3.86-3.774S45.7-435.165,47.775-433.089Zm27.447,0L79-429.315H63.9l3.774-3.774,3.774-3.774Z" fill="#18a871" stroke="#f2f7f5" stroke-width="1.6"></path></g></svg> 