<?xml version="1.0" encoding="UTF-8"?> <svg xmlns="http://www.w3.org/2000/svg" width="94.189" height="78.157" viewBox="0 0 94.189 78.157"><g transform="translate(0 -43.574)"><g transform="translate(0 43.574)"><g transform="translate(0 0)"><path d="M92.185,43.574H2a2,2,0,0,0-2,2v74.149a2,2,0,0,0,2,2H92.185a2,2,0,0,0,2-2V45.578A2,2,0,0,0,92.185,43.574ZM74.55,66.119V80.649H48.5V66.119H74.55ZM34.069,47.582H60.121V62.111H34.069V47.582ZM44.489,66.119V80.649H19.64V66.119h24.85ZM4.008,47.582H30.06V62.111H4.008Zm0,18.537H15.631V80.649H4.008Zm11.623,51.6H4.008V103.194H15.631ZM4.008,99.186V84.657H30.06V99.186H4.008Zm40.481,18.537H19.639V103.194h24.85v14.529ZM34.069,99.186V84.657H60.121V99.186H34.069ZM74.55,117.723H48.5V103.194H74.55Zm15.631,0H78.558V103.194H90.181Zm0-18.537H64.129V84.657H90.181Zm0-18.537H78.558V66.119H90.181Zm0-18.537H64.129V47.582H90.181Z" transform="translate(0 -43.574)" fill="#18a871"></path><path d="M38.736,77.137h-7.51a2,2,0,1,0,0,4.008h7.51a2,2,0,0,0,0-4.008Z" transform="translate(-23.846 -70.963)" fill="#18a871"></path><path d="M102.729,81.144h3.34a2,2,0,1,0,0-4.008h-3.34a2,2,0,1,0,0,4.008Z" transform="translate(-82.195 -70.962)" fill="#18a871"></path></g></g></g></svg> 